<?xml version="1.0" encoding="utf-8"?>
<!-- Generator: Adobe Illustrator 23.0.1, SVG Export Plug-In . SVG Version: 6.00 Build 0)  -->
<svg version="1.1" id="레이어_1" xmlns="http://www.w3.org/2000/svg" xmlns:xlink="http://www.w3.org/1999/xlink" x="0px"
	 y="0px" viewBox="0 0 841.9 595.3" style="enable-background:new 0 0 841.9 595.3;" xml:space="preserve">
<style type="text/css">
	.st0{fill:#FFFFFF;}
	.st1{opacity:0.6;}
	.st2{fill:#F1DADC;}
	.st3{fill:url(#SVGID_1_);}
</style>
<g>
	<path class="st0" d="M326.5,396.5L271,260.3c-0.8-1.5-2.4-2.3-4.9-2.5c-2.5-0.1-4.1,0.4-4.9,1.6l-65.3,205c-1.9,3.3-4,5.6-6.4,6.8
		c-2.3,1.2-5.8,1.8-10.4,1.8h-73.4c4.6-3.3,8.9-7.5,12.7-12.5c3.8-5,7.1-9.9,9.8-14.7l118.5-317.7c1.2-2.1,3.5-4.1,6.9-5.9
		c3.5-1.8,7.5-2.7,12.1-2.7c5.4,0,9.8,1.1,13.3,3.2s5.8,4.4,6.9,6.8l73.4,182.9L326.5,396.5z"/>
	<g class="st1">
		<path class="st2" d="M544.9,349.5l98.3-213.9c1.9-3.3,3.9-5.6,6.1-6.8c2.1-1.2,5.7-1.8,10.7-1.8h76.3c-4.2,3.3-8.3,7.5-12.1,12.4
			c-3.9,5-7.1,9.9-9.8,14.7L575.6,431.3"/>
	</g>
	<g>
		
			<linearGradient id="SVGID_1_" gradientUnits="userSpaceOnUse" x1="558.3226" y1="54.8089" x2="234.486" y2="128.6246" gradientTransform="matrix(1 0 0 1 0 236)">
			<stop  offset="0" style="stop-color:#EBCACB;stop-opacity:0.6"/>
			<stop  offset="1" style="stop-color:#FFFFFF"/>
		</linearGradient>
		<path class="st3" d="M424.4,130.9c1.2-2.1,3.5-4.1,6.9-5.9c3.5-1.8,7.5-2.7,12.1-2.7c5.4,0,9.8,1.1,13.3,3.2s5.8,4.4,6.9,6.8
			l118.5,316.4c2.7,4.8,6,9.7,9.8,14.7s7.9,9.1,12.1,12.5h-72.8c-5,0-8.6-0.6-10.7-1.8c-2.1-1.2-4.1-3.5-6.1-6.8L448.7,263
			c-0.8-1.5-2.4-2.3-4.9-2.5c-2.5-0.1-4.1,0.4-4.9,1.6l-71.1,205c-1.9,3.3-4,5.6-6.4,6.8c-2.3,1.2-5.8,1.8-10.4,1.8h-73.4
			c4.6-3.3,8.9-7.5,12.7-12.5c3.8-5,7.1-9.9,9.8-14.7L424.4,130.9z"/>
	</g>
</g>
</svg>
