<svg id="profile_line" class="intro-line"  x="0px" y="0px" viewBox="0 0 390 510">
            <path class="st0" d="M387.83,139.96c-1.65-16.94-6.56-33.53-14.88-48.57C344.29,39.56,281.92,7.26,224.54,2.6
            C172.36-1.64,117.72,17.74,82.7,57.3c-16.93,19.12-28.59,42.65-32.62,67.93c-4.19,26.25,5.1,51.62,6.32,77.65
            c1.3,27.73-8.4,54.06-17.38,79.83c-10.41,29.88-21.52,59.51-31.99,89.37c-11.12,31.7-4.86,67.78,15.34,94.45
            c38.51,50.83,99.95,43.12,155.33,37.03c53.01-5.83,110.38-20.88,148.29-60.97c42.65-45.1,56.04-101.64,47.94-161.95
            c-1.89-14.05-6.42-29.52-6.02-44.39c0.43-16.3,7.97-30.38,13.5-45.36C387.56,174.19,389.56,157.74,387.83,139.96z"/>
          </svg>